<svg xmlns="http://www.w3.org/2000/svg" xmlns:xlink="http://www.w3.org/1999/xlink" width="700" zoomAndPan="magnify" viewBox="0 0 525 272.999983" height="364" preserveAspectRatio="xMidYMid meet" version="1.0"><defs><g/><clipPath id="fb3535aecb"><path d="M 75 81.359375 L 190.875 81.359375 L 190.875 197.238281 L 75 197.238281 Z M 75 81.359375 " clip-rule="nonzero"/></clipPath></defs><g clip-path="url(#fb3535aecb)"><path fill="#f7df1e" d="M 75 81.359375 L 190.875 81.359375 L 190.875 197.238281 L 75 197.238281 Z M 75 81.359375 " fill-opacity="1" fill-rule="nonzero"/></g><path fill="#000000" d="M 105.46875 178.195312 L 114.335938 172.832031 C 116.046875 175.863281 117.601562 178.429688 121.335938 178.429688 C 124.914062 178.429688 127.171875 177.027344 127.171875 171.585938 L 127.171875 134.558594 L 138.058594 134.558594 L 138.058594 171.738281 C 138.058594 183.015625 131.449219 188.152344 121.804688 188.152344 C 113.089844 188.152344 108.035156 183.640625 105.46875 178.195312 " fill-opacity="1" fill-rule="nonzero"/><path fill="#000000" d="M 143.972656 177.027344 L 152.839844 171.894531 C 155.175781 175.703125 158.207031 178.507812 163.574219 178.507812 C 168.085938 178.507812 170.964844 176.253906 170.964844 173.136719 C 170.964844 169.402344 168.007812 168.082031 163.027344 165.90625 L 160.308594 164.738281 C 152.449219 161.390625 147.242188 157.195312 147.242188 148.324219 C 147.242188 140.160156 153.460938 133.933594 163.1875 133.933594 C 170.109375 133.933594 175.085938 136.347656 178.664062 142.648438 L 170.183594 148.09375 C 168.320312 144.75 166.296875 143.425781 163.1875 143.425781 C 159.996094 143.425781 157.972656 145.449219 157.972656 148.09375 C 157.972656 151.363281 159.996094 152.683594 164.664062 154.707031 L 167.382812 155.871094 C 176.640625 159.839844 181.855469 163.882812 181.855469 172.984375 C 181.855469 182.785156 174.15625 188.152344 163.808594 188.152344 C 153.695312 188.152344 147.164062 183.328125 143.972656 177.027344 " fill-opacity="1" fill-rule="nonzero"/><g fill="#737373" fill-opacity="1"><g transform="translate(220.232475, 188.163037)"><g><path d="M 0.875 -9.953125 L 5.84375 -9.953125 L 5.84375 -7.46875 L 0.875 -7.46875 Z M 0.875 -9.953125 "/></g></g></g><g fill="#737373" fill-opacity="1"><g transform="translate(236.906129, 188.163037)"><g><path d="M 5.125 -17.421875 C 6.550781 -17.421875 7.582031 -17.085938 8.21875 -16.421875 C 8.863281 -15.765625 9.1875 -14.765625 9.1875 -13.421875 L 9.1875 -12.796875 C 9.1875 -11.898438 9.046875 -11.160156 8.765625 -10.578125 C 8.484375 -9.992188 8.035156 -9.5625 7.421875 -9.28125 C 8.160156 -9 8.679688 -8.535156 8.984375 -7.890625 C 9.296875 -7.253906 9.453125 -6.472656 9.453125 -5.546875 L 9.453125 -4.125 C 9.453125 -2.78125 9.101562 -1.753906 8.40625 -1.046875 C 7.71875 -0.347656 6.679688 0 5.296875 0 L 1 0 L 1 -17.421875 Z M 3.734375 -7.84375 L 3.734375 -2.484375 L 5.296875 -2.484375 C 5.765625 -2.484375 6.117188 -2.609375 6.359375 -2.859375 C 6.597656 -3.109375 6.71875 -3.554688 6.71875 -4.203125 L 6.71875 -5.71875 C 6.71875 -6.53125 6.582031 -7.085938 6.3125 -7.390625 C 6.039062 -7.691406 5.585938 -7.84375 4.953125 -7.84375 Z M 3.734375 -14.9375 L 3.734375 -10.328125 L 4.796875 -10.328125 C 5.316406 -10.328125 5.722656 -10.457031 6.015625 -10.71875 C 6.304688 -10.988281 6.453125 -11.472656 6.453125 -12.171875 L 6.453125 -13.140625 C 6.453125 -13.773438 6.335938 -14.234375 6.109375 -14.515625 C 5.890625 -14.796875 5.535156 -14.9375 5.046875 -14.9375 Z M 3.734375 -14.9375 "/></g></g></g><g fill="#737373" fill-opacity="1"><g transform="translate(256.964286, 188.163037)"><g><path d="M 1 -17.421875 L 3.734375 -17.421875 L 3.734375 -2.484375 L 8.234375 -2.484375 L 8.234375 0 L 1 0 Z M 1 -17.421875 "/></g></g></g><g fill="#737373" fill-opacity="1"><g transform="translate(275.355079, 188.163037)"><g><path d="M 3.515625 -4 C 3.515625 -3.375 3.640625 -2.929688 3.890625 -2.671875 C 4.148438 -2.421875 4.492188 -2.296875 4.921875 -2.296875 C 5.359375 -2.296875 5.703125 -2.421875 5.953125 -2.671875 C 6.210938 -2.929688 6.34375 -3.375 6.34375 -4 L 6.34375 -13.421875 C 6.34375 -14.046875 6.210938 -14.488281 5.953125 -14.75 C 5.703125 -15.007812 5.359375 -15.140625 4.921875 -15.140625 C 4.492188 -15.140625 4.148438 -15.007812 3.890625 -14.75 C 3.640625 -14.488281 3.515625 -14.046875 3.515625 -13.421875 Z M 0.765625 -13.234375 C 0.765625 -14.648438 1.117188 -15.734375 1.828125 -16.484375 C 2.546875 -17.242188 3.578125 -17.625 4.921875 -17.625 C 6.265625 -17.625 7.289062 -17.242188 8 -16.484375 C 8.71875 -15.734375 9.078125 -14.648438 9.078125 -13.234375 L 9.078125 -4.1875 C 9.078125 -2.769531 8.71875 -1.679688 8 -0.921875 C 7.289062 -0.171875 6.265625 0.203125 4.921875 0.203125 C 3.578125 0.203125 2.546875 -0.171875 1.828125 -0.921875 C 1.117188 -1.679688 0.765625 -2.769531 0.765625 -4.1875 Z M 0.765625 -13.234375 "/></g></g></g><g fill="#737373" fill-opacity="1"><g transform="translate(295.164386, 188.163037)"><g><path d="M 5.109375 -9.703125 L 8.9375 -9.703125 L 8.9375 -4.1875 C 8.9375 -2.769531 8.59375 -1.679688 7.90625 -0.921875 C 7.21875 -0.171875 6.203125 0.203125 4.859375 0.203125 C 3.515625 0.203125 2.492188 -0.171875 1.796875 -0.921875 C 1.109375 -1.679688 0.765625 -2.769531 0.765625 -4.1875 L 0.765625 -13.234375 C 0.765625 -14.648438 1.109375 -15.734375 1.796875 -16.484375 C 2.492188 -17.242188 3.515625 -17.625 4.859375 -17.625 C 6.203125 -17.625 7.21875 -17.242188 7.90625 -16.484375 C 8.59375 -15.734375 8.9375 -14.648438 8.9375 -13.234375 L 8.9375 -11.546875 L 6.34375 -11.546875 L 6.34375 -13.421875 C 6.34375 -14.046875 6.210938 -14.488281 5.953125 -14.75 C 5.703125 -15.007812 5.359375 -15.140625 4.921875 -15.140625 C 4.492188 -15.140625 4.148438 -15.007812 3.890625 -14.75 C 3.640625 -14.488281 3.515625 -14.046875 3.515625 -13.421875 L 3.515625 -4 C 3.515625 -3.375 3.640625 -2.9375 3.890625 -2.6875 C 4.148438 -2.4375 4.492188 -2.3125 4.921875 -2.3125 C 5.359375 -2.3125 5.703125 -2.4375 5.953125 -2.6875 C 6.210938 -2.9375 6.34375 -3.375 6.34375 -4 L 6.34375 -7.21875 L 5.109375 -7.21875 Z M 5.109375 -9.703125 "/></g></g></g><g fill="#737373" fill-opacity="1"><g transform="translate(314.824375, 188.163037)"><g><path d="M 0.875 -9.953125 L 5.84375 -9.953125 L 5.84375 -7.46875 L 0.875 -7.46875 Z M 0.875 -9.953125 "/></g></g></g><g fill="#f6ab39" fill-opacity="1"><g transform="translate(217.419027, 115.245412)"><g><path d="M 15.640625 -29.0625 C 19.398438 -29.0625 22.304688 -28.160156 24.359375 -26.359375 C 26.421875 -24.566406 27.453125 -22.03125 27.453125 -18.75 C 27.453125 -15.289062 26.421875 -12.609375 24.359375 -10.703125 C 22.304688 -8.796875 19.398438 -7.84375 15.640625 -7.84375 L 11.078125 -7.796875 L 11.078125 0 L 2.453125 0 L 2.453125 -29.0625 Z M 15.21875 -14.46875 C 16.519531 -14.46875 17.519531 -14.8125 18.21875 -15.5 C 18.925781 -16.195312 19.28125 -17.195312 19.28125 -18.5 C 19.28125 -19.769531 18.925781 -20.742188 18.21875 -21.421875 C 17.519531 -22.097656 16.519531 -22.4375 15.21875 -22.4375 L 11.078125 -22.4375 L 11.078125 -14.46875 Z M 15.21875 -14.46875 "/></g></g></g><g fill="#f6ab39" fill-opacity="1"><g transform="translate(252.381073, 115.245412)"><g><path d="M 13.359375 -22.84375 C 15.867188 -22.84375 18.0625 -22.363281 19.9375 -21.40625 C 21.820312 -20.457031 23.28125 -19.113281 24.3125 -17.375 C 25.351562 -15.632812 25.875 -13.601562 25.875 -11.28125 C 25.875 -8.988281 25.351562 -6.960938 24.3125 -5.203125 C 23.28125 -3.453125 21.820312 -2.097656 19.9375 -1.140625 C 18.0625 -0.179688 15.867188 0.296875 13.359375 0.296875 C 10.835938 0.296875 8.628906 -0.179688 6.734375 -1.140625 C 4.835938 -2.097656 3.367188 -3.453125 2.328125 -5.203125 C 1.296875 -6.960938 0.78125 -8.988281 0.78125 -11.28125 C 0.78125 -13.601562 1.296875 -15.632812 2.328125 -17.375 C 3.367188 -19.113281 4.835938 -20.457031 6.734375 -21.40625 C 8.628906 -22.363281 10.835938 -22.84375 13.359375 -22.84375 Z M 13.359375 -16.21875 C 12.109375 -16.21875 11.109375 -15.753906 10.359375 -14.828125 C 9.617188 -13.898438 9.25 -12.691406 9.25 -11.203125 C 9.25 -9.679688 9.617188 -8.460938 10.359375 -7.546875 C 11.109375 -6.628906 12.109375 -6.171875 13.359375 -6.171875 C 14.566406 -6.171875 15.546875 -6.628906 16.296875 -7.546875 C 17.046875 -8.460938 17.421875 -9.679688 17.421875 -11.203125 C 17.421875 -12.691406 17.046875 -13.898438 16.296875 -14.828125 C 15.546875 -15.753906 14.566406 -16.21875 13.359375 -16.21875 Z M 13.359375 -16.21875 "/></g></g></g><g fill="#f6ab39" fill-opacity="1"><g transform="translate(285.684218, 115.245412)"><g><path d="M 2.734375 0 L 2.734375 -30.765625 L 11.109375 -30.765625 L 11.109375 0 Z M 2.734375 0 "/></g></g></g><g fill="#f6ab39" fill-opacity="1"><g transform="translate(306.213803, 115.245412)"><g><path d="M 15.96875 1.90625 C 15.082031 4.113281 13.863281 5.75 12.3125 6.8125 C 10.769531 7.882812 8.863281 8.421875 6.59375 8.421875 C 5.207031 8.421875 3.929688 8.21875 2.765625 7.8125 C 1.609375 7.414062 0.46875 6.789062 -0.65625 5.9375 L 2.8125 0.328125 C 3.34375 0.796875 3.84375 1.128906 4.3125 1.328125 C 4.78125 1.523438 5.289062 1.625 5.84375 1.625 C 7.007812 1.625 7.828125 1.140625 8.296875 0.171875 L 8.703125 -0.625 L -0.625 -22.5625 L 7.96875 -22.5625 L 12.890625 -8.75 L 17.078125 -22.5625 L 25.421875 -22.5625 Z M 15.96875 1.90625 "/></g></g></g><g fill="#ffffff" fill-opacity="1"><g transform="translate(218.865604, 150.237998)"><g><path d="M 13.609375 -6.84375 C 13.609375 -4.625 12.984375 -2.894531 11.734375 -1.65625 C 10.492188 -0.425781 8.796875 0.1875 6.640625 0.1875 C 3.929688 0.1875 1.6875 -0.898438 -0.09375 -3.078125 L 1.875 -6.203125 C 2.59375 -5.429688 3.363281 -4.832031 4.1875 -4.40625 C 5.007812 -3.976562 5.785156 -3.765625 6.515625 -3.765625 C 7.421875 -3.765625 8.128906 -4.039062 8.640625 -4.59375 C 9.148438 -5.144531 9.40625 -5.925781 9.40625 -6.9375 L 9.40625 -18.09375 L 1.90625 -18.09375 L 1.90625 -21.796875 L 13.609375 -21.796875 Z M 13.609375 -6.84375 "/></g></g></g><g fill="#ffffff" fill-opacity="1"><g transform="translate(240.317494, 150.237998)"><g><path d="M 16.34375 0 L 12.359375 0 L 12.359375 -2.03125 C 11.773438 -1.300781 11.023438 -0.75 10.109375 -0.375 C 9.203125 0 8.15625 0.1875 6.96875 0.1875 C 5.8125 0.1875 4.789062 -0.0351562 3.90625 -0.484375 C 3.019531 -0.929688 2.335938 -1.546875 1.859375 -2.328125 C 1.390625 -3.117188 1.15625 -4.003906 1.15625 -4.984375 C 1.15625 -6.535156 1.703125 -7.753906 2.796875 -8.640625 C 3.898438 -9.523438 5.457031 -9.976562 7.46875 -10 L 12.328125 -10 L 12.328125 -10.4375 C 12.328125 -11.40625 12.003906 -12.160156 11.359375 -12.703125 C 10.722656 -13.242188 9.789062 -13.515625 8.5625 -13.515625 C 6.988281 -13.515625 5.335938 -12.992188 3.609375 -11.953125 L 2.15625 -14.765625 C 3.457031 -15.484375 4.640625 -16.003906 5.703125 -16.328125 C 6.773438 -16.648438 8.03125 -16.8125 9.46875 -16.8125 C 11.625 -16.8125 13.296875 -16.289062 14.484375 -15.25 C 15.679688 -14.21875 16.289062 -12.769531 16.3125 -10.90625 Z M 7.9375 -2.921875 C 9.101562 -2.921875 10.097656 -3.195312 10.921875 -3.75 C 11.753906 -4.300781 12.222656 -4.984375 12.328125 -5.796875 L 12.328125 -7.28125 L 8.125 -7.28125 C 7.050781 -7.28125 6.257812 -7.117188 5.75 -6.796875 C 5.238281 -6.484375 4.984375 -5.960938 4.984375 -5.234375 C 4.984375 -4.523438 5.25 -3.960938 5.78125 -3.546875 C 6.3125 -3.128906 7.03125 -2.921875 7.9375 -2.921875 Z M 7.9375 -2.921875 "/></g></g></g><g fill="#ffffff" fill-opacity="1"><g transform="translate(264.291058, 150.237998)"><g><path d="M 6.390625 0 L -0.03125 -16.625 L 4.203125 -16.65625 L 8.5625 -3.984375 L 12.828125 -16.65625 L 16.90625 -16.65625 L 10.5625 0 Z M 6.390625 0 "/></g></g></g><g fill="#ffffff" fill-opacity="1"><g transform="translate(286.61463, 150.237998)"><g><path d="M 16.34375 0 L 12.359375 0 L 12.359375 -2.03125 C 11.773438 -1.300781 11.023438 -0.75 10.109375 -0.375 C 9.203125 0 8.15625 0.1875 6.96875 0.1875 C 5.8125 0.1875 4.789062 -0.0351562 3.90625 -0.484375 C 3.019531 -0.929688 2.335938 -1.546875 1.859375 -2.328125 C 1.390625 -3.117188 1.15625 -4.003906 1.15625 -4.984375 C 1.15625 -6.535156 1.703125 -7.753906 2.796875 -8.640625 C 3.898438 -9.523438 5.457031 -9.976562 7.46875 -10 L 12.328125 -10 L 12.328125 -10.4375 C 12.328125 -11.40625 12.003906 -12.160156 11.359375 -12.703125 C 10.722656 -13.242188 9.789062 -13.515625 8.5625 -13.515625 C 6.988281 -13.515625 5.335938 -12.992188 3.609375 -11.953125 L 2.15625 -14.765625 C 3.457031 -15.484375 4.640625 -16.003906 5.703125 -16.328125 C 6.773438 -16.648438 8.03125 -16.8125 9.46875 -16.8125 C 11.625 -16.8125 13.296875 -16.289062 14.484375 -15.25 C 15.679688 -14.21875 16.289062 -12.769531 16.3125 -10.90625 Z M 7.9375 -2.921875 C 9.101562 -2.921875 10.097656 -3.195312 10.921875 -3.75 C 11.753906 -4.300781 12.222656 -4.984375 12.328125 -5.796875 L 12.328125 -7.28125 L 8.125 -7.28125 C 7.050781 -7.28125 6.257812 -7.117188 5.75 -6.796875 C 5.238281 -6.484375 4.984375 -5.960938 4.984375 -5.234375 C 4.984375 -4.523438 5.25 -3.960938 5.78125 -3.546875 C 6.3125 -3.128906 7.03125 -2.921875 7.9375 -2.921875 Z M 7.9375 -2.921875 "/></g></g></g><g fill="#ffffff" fill-opacity="1"><g transform="translate(310.588195, 150.237998)"><g><path d="M 12.390625 -12.140625 C 11.578125 -12.617188 10.738281 -12.992188 9.875 -13.265625 C 9.019531 -13.535156 8.226562 -13.671875 7.5 -13.671875 C 6.820312 -13.671875 6.28125 -13.550781 5.875 -13.3125 C 5.46875 -13.070312 5.265625 -12.703125 5.265625 -12.203125 C 5.265625 -11.679688 5.515625 -11.28125 6.015625 -11 C 6.523438 -10.726562 7.332031 -10.4375 8.4375 -10.125 C 9.601562 -9.769531 10.554688 -9.421875 11.296875 -9.078125 C 12.046875 -8.734375 12.695312 -8.222656 13.25 -7.546875 C 13.800781 -6.878906 14.078125 -5.992188 14.078125 -4.890625 C 14.078125 -3.265625 13.453125 -2.015625 12.203125 -1.140625 C 10.960938 -0.273438 9.394531 0.15625 7.5 0.15625 C 6.21875 0.15625 4.960938 -0.046875 3.734375 -0.453125 C 2.515625 -0.859375 1.476562 -1.4375 0.625 -2.1875 L 2.03125 -5.015625 C 2.769531 -4.367188 3.660156 -3.863281 4.703125 -3.5 C 5.742188 -3.132812 6.726562 -2.953125 7.65625 -2.953125 C 8.40625 -2.953125 9.003906 -3.082031 9.453125 -3.34375 C 9.898438 -3.601562 10.125 -3.992188 10.125 -4.515625 C 10.125 -5.097656 9.863281 -5.535156 9.34375 -5.828125 C 8.820312 -6.117188 7.976562 -6.4375 6.8125 -6.78125 C 5.695312 -7.113281 4.785156 -7.441406 4.078125 -7.765625 C 3.367188 -8.085938 2.753906 -8.578125 2.234375 -9.234375 C 1.722656 -9.890625 1.46875 -10.742188 1.46875 -11.796875 C 1.46875 -13.441406 2.0625 -14.691406 3.25 -15.546875 C 4.445312 -16.410156 5.945312 -16.84375 7.75 -16.84375 C 8.851562 -16.84375 9.9375 -16.6875 11 -16.375 C 12.070312 -16.0625 13.023438 -15.628906 13.859375 -15.078125 Z M 12.390625 -12.140625 "/></g></g></g><g fill="#ffffff" fill-opacity="1"><g transform="translate(331.199511, 150.237998)"><g><path d="M 13.984375 -11.390625 C 12.859375 -12.617188 11.40625 -13.234375 9.625 -13.234375 C 8.269531 -13.234375 7.171875 -12.773438 6.328125 -11.859375 C 5.492188 -10.953125 5.078125 -9.769531 5.078125 -8.3125 C 5.078125 -6.820312 5.492188 -5.617188 6.328125 -4.703125 C 7.171875 -3.785156 8.269531 -3.328125 9.625 -3.328125 C 11.613281 -3.328125 13.109375 -3.984375 14.109375 -5.296875 L 16.625 -3.203125 C 15.882812 -2.128906 14.898438 -1.300781 13.671875 -0.71875 C 12.441406 -0.132812 11.019531 0.15625 9.40625 0.15625 C 7.757812 0.15625 6.296875 -0.195312 5.015625 -0.90625 C 3.742188 -1.613281 2.753906 -2.601562 2.046875 -3.875 C 1.347656 -5.15625 1 -6.625 1 -8.28125 C 1 -9.96875 1.351562 -11.453125 2.0625 -12.734375 C 2.78125 -14.023438 3.773438 -15.019531 5.046875 -15.71875 C 6.328125 -16.425781 7.800781 -16.78125 9.46875 -16.78125 C 10.976562 -16.78125 12.332031 -16.515625 13.53125 -15.984375 C 14.726562 -15.460938 15.695312 -14.710938 16.4375 -13.734375 Z M 13.984375 -11.390625 "/></g></g></g><g fill="#ffffff" fill-opacity="1"><g transform="translate(354.363643, 150.237998)"><g><path d="M 6.578125 -13.453125 C 7.128906 -14.535156 7.890625 -15.359375 8.859375 -15.921875 C 9.828125 -16.492188 10.953125 -16.789062 12.234375 -16.8125 L 12.234375 -12.890625 C 10.515625 -12.992188 9.140625 -12.59375 8.109375 -11.6875 C 7.085938 -10.789062 6.578125 -9.570312 6.578125 -8.03125 L 6.578125 0 L 2.515625 0 L 2.515625 -16.65625 L 6.578125 -16.65625 Z M 6.578125 -13.453125 "/></g></g></g><g fill="#ffffff" fill-opacity="1"><g transform="translate(372.515556, 150.237998)"><g><path d="M 2.515625 0 L 2.515625 -16.65625 L 6.578125 -16.65625 L 6.578125 0 Z M 4.515625 -23.828125 C 5.179688 -23.828125 5.726562 -23.597656 6.15625 -23.140625 C 6.59375 -22.679688 6.8125 -22.097656 6.8125 -21.390625 C 6.8125 -20.703125 6.59375 -20.128906 6.15625 -19.671875 C 5.726562 -19.222656 5.179688 -19 4.515625 -19 C 3.867188 -19 3.328125 -19.222656 2.890625 -19.671875 C 2.453125 -20.128906 2.234375 -20.703125 2.234375 -21.390625 C 2.234375 -22.097656 2.445312 -22.679688 2.875 -23.140625 C 3.300781 -23.597656 3.847656 -23.828125 4.515625 -23.828125 Z M 4.515625 -23.828125 "/></g></g></g><g fill="#ffffff" fill-opacity="1"><g transform="translate(387.18071, 150.237998)"><g><path d="M 12.328125 -16.78125 C 13.890625 -16.78125 15.265625 -16.421875 16.453125 -15.703125 C 17.648438 -14.992188 18.570312 -13.992188 19.21875 -12.703125 C 19.875 -11.421875 20.203125 -9.9375 20.203125 -8.25 C 20.203125 -6.59375 19.878906 -5.128906 19.234375 -3.859375 C 18.597656 -2.597656 17.6875 -1.613281 16.5 -0.90625 C 15.320312 -0.195312 13.953125 0.15625 12.390625 0.15625 C 11.148438 0.15625 10.050781 -0.0859375 9.09375 -0.578125 C 8.132812 -1.066406 7.34375 -1.773438 6.71875 -2.703125 L 6.71875 6.046875 L 2.671875 6.046875 L 2.671875 -16.65625 L 6.71875 -16.65625 L 6.71875 -13.921875 C 7.320312 -14.859375 8.097656 -15.566406 9.046875 -16.046875 C 9.992188 -16.535156 11.085938 -16.78125 12.328125 -16.78125 Z M 11.421875 -3.328125 C 12.796875 -3.328125 13.914062 -3.800781 14.78125 -4.75 C 15.65625 -5.695312 16.09375 -6.90625 16.09375 -8.375 C 16.09375 -9.851562 15.65625 -11.054688 14.78125 -11.984375 C 13.914062 -12.921875 12.796875 -13.390625 11.421875 -13.390625 C 10.035156 -13.390625 8.90625 -12.921875 8.03125 -11.984375 C 7.15625 -11.054688 6.71875 -9.851562 6.71875 -8.375 C 6.71875 -6.882812 7.15625 -5.671875 8.03125 -4.734375 C 8.90625 -3.796875 10.035156 -3.328125 11.421875 -3.328125 Z M 11.421875 -3.328125 "/></g></g></g><g fill="#ffffff" fill-opacity="1"><g transform="translate(413.987267, 150.237998)"><g><path d="M 12.265625 -1.03125 C 10.941406 -0.21875 9.550781 0.1875 8.09375 0.1875 C 6.664062 0.1875 5.492188 -0.226562 4.578125 -1.0625 C 3.660156 -1.90625 3.203125 -3.148438 3.203125 -4.796875 L 3.203125 -13.015625 L 0.875 -13.015625 L 0.84375 -15.96875 L 3.203125 -15.96875 L 3.203125 -20.546875 L 7.21875 -20.546875 L 7.21875 -15.96875 L 11.984375 -15.96875 L 11.984375 -13.015625 L 7.21875 -13.015625 L 7.21875 -5.515625 C 7.21875 -4.742188 7.363281 -4.195312 7.65625 -3.875 C 7.945312 -3.550781 8.382812 -3.390625 8.96875 -3.390625 C 9.59375 -3.390625 10.378906 -3.617188 11.328125 -4.078125 Z M 12.265625 -1.03125 "/></g></g></g></svg>